:version 1.10
:name ASF
:units
  mass 1
  length 1
  angle deg
:documentation
  ASF file generated by Kaydara
:root
  axis xyz
  order  tx ty tz rx ry rz
  position 0 0 0
  orientation 0 0 0
:bonedata
  begin
    id 1
    name RightUpLegDummy
    direction -0.718183 -0.695806 0.00816078
    length 4.904
    axis 0 0 0 xyz
  end
  begin
    id 2
    name RightUpLeg
    direction -0.0736652 -0.994202 0.0783343
    length 17.4976
    axis -2.72909 -3.00389 -4.00133 xyz
    dof rx ry rz
  end
  begin
    id 3
    name RightLeg
    direction -0.0389037 -0.994596 -0.0962598
    length 16.5821
    axis 3.95836 -18.5909 -4.46993 xyz
    dof rx ry rz
  end
  begin
    id 4
    name RightFoot
    direction -0.311643 -0.412678 0.855906
    length 3.77069
    axis -1.99483 -18.8351 -3.27644 xyz
    dof rx ry rz
  end
  begin
    id 5
    name RightToes
    direction -0.317852 0.0389852 0.947339
    length 3.85082
    axis -2.00228 -18.1713 -3.25211 xyz
    dof rx ry rz
  end
  begin
    id 6
    name SpineDummy
    direction 8.3039e-015 1 4.44677e-016
    length 4.6813
    axis 0 0 0 xyz
  end
  begin
    id 7
    name Spine
    direction -0.000262373 0.999988 0.00493267
    length 10.1015
    axis -0.00246081 0.00062579 0.0150362 xyz
    dof rx ry rz
  end
  begin
    id 8
    name Spine1
    direction 0 0 0
    length 0
    axis -0.00349562 0.000650293 0.0196666 xyz
    dof rx ry rz
  end
  begin
    id 9
    name HEadDummy
    direction -0.000343232 0.999999 0.00123745
    length 3.43865
    axis -0.00349562 0.000650293 0.0196666 xyz
  end
  begin
    id 10
    name HEad
    direction -0.0461221 0.980933 0.188796
    length 5.12695
    axis -0.00351404 -7.04812 0.0199272 xyz
    dof rx ry rz
  end
  begin
    id 11
    name LeftShoulder1Dummy
    direction 0.998904 -0.0399089 -0.0244534
    length 3.5433
    axis -0.00349562 0.000650293 0.0196666 xyz
  end
  begin
    id 12
    name LeftShoulder1
    direction 0.99951 1.64443e-005 0.0312999
    length 4.05031
    axis -0.00349562 0.000650293 0.0196666 xyz
    dof rx ry rz
  end
  begin
    id 13
    name LeftArm
    direction 0.984791 0.0515299 0.165927
    length 12.9126
    axis -64.823 -10.7743 5.20463 xyz
    dof rx ry rz
  end
  begin
    id 14
    name LeftForeArm
    direction 0.984968 0.0534808 0.16425
    length 10.8596
    axis -30.0462 -7.70601 1.87451 xyz
    dof rx ry rz
  end
  begin
    id 15
    name LeftHand
    direction 0.975871 0.0289682 0.216418
    length 6.62295
    axis -20.1348 -6.98077 1.86072 xyz
    dof rx ry rz
  end
  begin
    id 16
    name RightShoulderDummy
    direction -0.998877 -0.0405946 -0.0244307
    length 3.5433
    axis -0.00349562 0.000650293 0.0196666 xyz
  end
  begin
    id 17
    name RightShoulder
    direction -0.998933 -0.0249743 -0.0388558
    length 4.05031
    axis -0.0205316 -4.02113 1.41395 xyz
    dof rx ry rz
  end
  begin
    id 18
    name RightArm
    direction -0.997559 0.068664 0.0127103
    length 12.9638
    axis -67.3882 1.84188 -6.15987 xyz
    dof rx ry rz
  end
  begin
    id 19
    name RightForeArm
    direction -0.991508 0.0912848 0.0926241
    length 10.8312
    axis -22.1975 3.41087 -4.28711 xyz
    dof rx ry rz
  end
  begin
    id 20
    name RightHand
    direction -0.989262 0.0600788 0.133232
    length 6.57864
    axis -12.2911 2.17515 -4.39675 xyz
    dof rx ry rz
  end
  begin
    id 21
    name LeftUpLegDummy
    direction 0.718183 -0.695806 0.00816078
    length 4.904
    axis 0 0 0 xyz
  end
  begin
    id 22
    name LeftUpLeg
    direction 0.0831398 -0.99469 0.0606531
    length 17.4976
    axis -1.71016 2.29552 4.63832 xyz
    dof rx ry rz
  end
  begin
    id 23
    name LeftLeg
    direction 0.0498442 -0.991778 -0.117862
    length 16.5821
    axis 5.13757 15.5727 5.13348 xyz
    dof rx ry rz
  end
  begin
    id 24
    name LeftFoot
    direction 0.269026 -0.433896 0.85986
    length 3.77069
    axis -0.576502 15.6961 4.10267 xyz
    dof rx ry rz
  end
  begin
    id 25
    name LeftToes
    direction 0.277311 0.0251143 0.960452
    length 3.85048
    axis -0.576502 15.6961 4.10267 xyz
    dof rx ry rz
  end
:hierarchy
  begin
    root RightUpLegDummy SpineDummy LeftUpLegDummy
    RightUpLegDummy RightUpLeg
    RightUpLeg RightLeg
    RightLeg RightFoot
    RightFoot RightToes
    SpineDummy Spine
    Spine Spine1
    Spine1 HEadDummy LeftShoulder1Dummy RightShoulderDummy
    HEadDummy HEad
    LeftShoulder1Dummy LeftShoulder1
    LeftShoulder1 LeftArm
    LeftArm LeftForeArm
    LeftForeArm LeftHand
    RightShoulderDummy RightShoulder
    RightShoulder RightArm
    RightArm RightForeArm
    RightForeArm RightHand
    LeftUpLegDummy LeftUpLeg
    LeftUpLeg LeftLeg
    LeftLeg LeftFoot
    LeftFoot LeftToes
  end

:SAMPLES-PER-SECOND 30
:FULLY-SPECIFIED
:DEGREES
154
root  3.02134 25.1515 0.759423 -35.7197 82.5783 -43.1316
RightUpLeg  -78.1375 -11.9153 6.67454
RightLeg  85.2379 16.0232 -23.3755
RightFoot  -16.6567 0.289729 7.93573
RightToes  5.82077e-011 -3.18055e-015 -2.98177e-016
Spine  34.1076 0.979027 5.92083
Spine1  8.92741 -0.0193605 6.52653
HEad  18.3841 -5.66924 -2.11247
LeftShoulder1  -3.88251e-019 9.70628e-020 -3.87848e-018
LeftArm  -4.39448 22.903 -59.2049
LeftForeArm  -17.0822 -27.3302 4.4564
LeftHand  -0.5253 -3.74837 7.19094
RightShoulder  4.93911 10.0675 22.6404
RightArm  6.90699 -31.6924 30.2168
RightForeArm  -3.1922 27.4264 -14.5837
RightHand  -1.37803 6.12107 -13.8282
LeftUpLeg  -72.9104 7.38617 14.5167
LeftLeg  99.0542 -11.9421 -8.53959
LeftFoot  -31.8647 -0.82013 -4.43447
LeftToes  7.79675e-011 9.80247e-012 -3.28897e-011
155
root  2.67763 24.2525 0.888172 -44.8343 83.0194 -49.6682
RightUpLeg  -78.3886 -12.4613 6.51358
RightLeg  88.1344 17.256 -23.9703
RightFoot  -17.1046 0.329323 8.14178
RightToes  5.82077e-011 -3.18055e-015 -2.98177e-016
Spine  34.6954 1.06004 4.76916
Spine1  8.74291 -0.153626 6.79182
HEad  19.2547 -6.11158 -1.62611
LeftShoulder1  -3.88251e-019 9.70628e-020 -3.87848e-018
LeftArm  -3.75871 21.5542 -58.5638
LeftForeArm  -16.1096 -26.6655 4.03522
LeftHand  -0.542413 -4.0122 7.21563
RightShoulder  4.8904 10.0517 22.3943
RightArm  5.95203 -32.5671 29.5278
RightForeArm  -5.08278 28.5914 -15.1361
RightHand  -1.3726 5.79922 -14.1543
LeftUpLeg  -73.4833 7.17385 15.908
LeftLeg  102.314 -11.034 -10.2639
LeftFoot  -32.2435 -0.874382 -4.66117
LeftToes  7.79675e-011 9.80247e-012 -3.28897e-011
156
root  2.37131 23.5211 0.970328 -49.8429 83.4527 -52.3603
RightUpLeg  -78.5204 -12.9977 6.0233
RightLeg  90.5187 18.2508 -24.0167
RightFoot  -17.5388 0.356239 7.98826
RightToes  5.82077e-011 -3.18055e-015 -2.98177e-016
Spine  34.6883 0.985163 4.24107
Spine1  8.94226 -0.117201 6.00881
HEad  19.6312 -6.78968 -0.884461
LeftShoulder1  -3.88251e-019 9.70628e-020 -3.87848e-018
LeftArm  -3.41653 19.397 -58.0728
LeftForeArm  -14.1937 -25.2349 2.95631
LeftHand  -0.536938 -4.26039 6.96142
RightShoulder  5.04751 10.0854 23.2158
RightArm  4.65095 -33.1441 28.3713
RightForeArm  -5.76177 30.0646 -15.9387
RightHand  -1.42217 6.21141 -14.149
LeftUpLeg  -73.7573 7.07657 16.6095
LeftLeg  104.807 -10.16 -11.7175
LeftFoot  -32.3293 -0.938426 -5.01726
LeftToes  7.79675e-011 9.80247e-012 -3.28897e-011
157
root  2.09343 23.1517 0.989531 -50.0783 83.8551 -50.7691
RightUpLeg  -78.1671 -13.3107 5.28291
RightLeg  91.6304 18.6764 -23.8144
RightFoot  -17.4316 0.344316 7.8815
RightToes  5.82077e-011 -3.18055e-015 -2.98177e-016
Spine  33.6294 0.675587 4.50834
Spine1  10.7656 0.0791926 4.10457
HEad  19.3437 -7.24153 -0.776421
LeftShoulder1  -3.88251e-019 9.70628e-020 -3.87848e-018
LeftArm  -4.62039 16.1583 -57.8795
LeftForeArm  -11.4186 -23.3092 1.42617
LeftHand  -0.579522 -4.06608 7.65247
RightShoulder  5.40802 10.202 25.0056
RightArm  2.48228 -32.4944 27.8938
RightForeArm  -6.9241 30.835 -16.3306
RightHand  -1.6116 6.49412 -15.6304
LeftUpLeg  -73.4402 7.0212 16.4336
LeftLeg  105.861 -9.75293 -12.289
LeftFoot  -31.7806 -0.819227 -4.44728
LeftToes  7.79675e-011 9.80247e-012 -3.28897e-011
158
root  1.79925 23.1825 0.964077 -47.6152 84.0782 -46.7162
RightUpLeg  -76.8899 -13.2454 4.50753
RightLeg  91.2717 18.5132 -23.7312
RightFoot  -16.8991 0.310175 8.02065
RightToes  5.82077e-011 -3.18055e-015 -2.98177e-016
Spine  32.3459 0.0781722 5.16799
Spine1  13.3243 0.313955 1.57816
HEad  19.5501 -6.77087 -2.32917
LeftShoulder1  -3.88251e-019 9.70628e-020 -3.87848e-018
LeftArm  -7.0456 13.5916 -57.7477
LeftForeArm  -9.1704 -21.7808 0.435126
LeftHand  -0.679023 -3.60524 9.37175
RightShoulder  5.79092 10.3381 26.8425
RightArm  0.743668 -31.3381 28.7889
RightForeArm  -10.4563 30.5371 -15.9856
RightHand  -1.87194 5.80223 -19.1838
LeftUpLeg  -72.2052 6.91762 15.8173
LeftLeg  105.436 -9.8533 -12.2964
LeftFoot  -30.7782 -0.649129 -3.63732
LeftToes  7.79675e-011 9.80247e-012 -3.28897e-011
159
root  1.50286 23.399 0.933628 -46.1947 84.1207 -43.4974
RightUpLeg  -74.7218 -12.8382 3.82857
RightLeg  90.2485 18.1265 -23.9357
RightFoot  -16.6903 0.297738 8.1178
RightToes  5.82077e-011 -3.18055e-015 -2.98177e-016
Spine  32.0547 -0.625975 5.60633
Spine1  14.2094 0.369142 -0.459945
HEad  21.3099 -5.44725 -5.3226
LeftShoulder1  -3.88251e-019 9.70628e-020 -3.87848e-018
LeftArm  -9.62319 13.7952 -57.6231
LeftForeArm  -8.8422 -21.2623 0.459402
LeftHand  -0.733234 -3.50935 10.2155
RightShoulder  6.01688 10.4027 27.9341
RightArm  1.0445 -31.4923 29.9583
RightForeArm  -13.5641 29.9613 -15.5052
RightHand  -1.96384 5.06129 -21.4478
LeftUpLeg  -70.1858 6.61542 15.4297
LeftLeg  104.382 -10.0876 -12.389
LeftFoot  -29.8674 -0.625341 -3.69453
LeftToes  7.79675e-011 9.80247e-012 -3.28897e-011
160
root  1.2905 23.5368 0.942824 -48.7815 84.2594 -44.1402
RightUpLeg  -72.3741 -12.3718 3.23195
RightLeg  89.5598 17.9332 -24.5301
RightFoot  -17.0371 0.321597 8.05727
RightToes  5.82077e-011 -3.18055e-015 -2.98177e-016
Spine  32.4493 -1.12516 5.58912
Spine1  12.7999 0.122231 -1.17327
HEad  23.8876 -4.28024 -8.0722
LeftShoulder1  -3.88251e-019 9.70628e-020 -3.87848e-018
LeftArm  -12.1867 16.9974 -57.9566
LeftForeArm  -10.4362 -21.7011 1.17112
LeftHand  -0.675891 -3.86952 9.06584
RightShoulder  6.11788 10.4071 28.4649
RightArm  3.37209 -33.6506 29.625
RightForeArm  -12.2631 30.2474 -15.7308
RightHand  -1.69644 5.15985 -18.4105
LeftUpLeg  -68.1838 5.91389 15.5089
LeftLeg  103.704 -10.1968 -12.6235
LeftFoot  -29.3813 -0.687627 -4.24533
LeftToes  7.79675e-011 9.80247e-012 -3.28897e-011
161
root  1.22259 23.4812 1.00523 -55.6375 84.6621 -49.2939
RightUpLeg  -70.5795 -12.0751 2.5985
RightLeg  89.6223 18.1108 -25.475
RightFoot  -17.4255 0.355251 8.18777
RightToes  5.82077e-011 -3.18055e-015 -2.98177e-016
Spine  32.1672 -1.27588 5.33873
Spine1  10.8429 -0.205524 -0.779603
HEad  25.2958 -4.39143 -9.22166
LeftShoulder1  -3.88251e-019 9.70628e-020 -3.87848e-018
LeftArm  -14.7439 21.6806 -59.0908
LeftForeArm  -13.4033 -22.9028 2.20706
LeftHand  -0.549811 -4.09662 7.24154
RightShoulder  6.24257 10.437 29.0693
RightArm  6.84015 -36.6127 27.1179
RightForeArm  -7.60439 31.6521 -16.7789
RightHand  -1.12846 6.29587 -11.2304
LeftUpLeg  -66.9126 4.86711 15.8453
LeftLeg  103.848 -10.1312 -12.7508
LeftFoot  -29.3237 -0.691153 -4.28823
LeftToes  7.79675e-011 9.80247e-012 -3.28897e-011
162
root  1.26206 23.263 1.08778 -63.4318 85.1996 -55.653
RightUpLeg  -69.4356 -11.8203 1.7328
RightLeg  90.346 18.5982 -26.4049
RightFoot  -17.526 0.384324 8.76086
RightToes  5.82077e-011 -3.18055e-015 -2.98177e-016
Spine  30.7676 -1.17565 5.12994
Spine1  9.85662 -0.296584 -0.267355
HEad  24.1405 -5.9116 -8.93188
LeftShoulder1  -3.88251e-019 9.70628e-020 -3.87848e-018
LeftArm  -16.5631 26.2319 -60.6179
LeftForeArm  -17.2479 -24.6723 3.25107
LeftHand  -0.470694 -3.94569 6.33635
RightShoulder  6.47776 10.5218 30.1401
RightArm  10.9597 -38.829 23.2607
RightForeArm  -4.61378 33.4049 -18.0009
RightHand  -0.582641 7.49858 -5.33789
LeftUpLeg  -66.2083 3.86637 16.1108
LeftLeg  104.671 -9.90801 -12.8161
LeftFoot  -29.6358 -0.654069 -3.94559
LeftToes  7.79675e-011 9.80247e-012 -3.28897e-011
163
root  1.32489 22.9816 1.14506 -66.8988 85.8418 -57.701
RightUpLeg  -68.5955 -11.3945 0.467134
RightLeg  91.4254 19.2103 -26.9503
RightFoot  -17.5871 0.420269 9.56591
RightToes  5.82077e-011 -3.18055e-015 -2.98177e-016
Spine  28.9738 -1.01796 5.20946
Spine1  9.85795 -0.0166656 -0.527261
HEad  20.4672 -8.06586 -8.04059
LeftShoulder1  -3.88251e-019 9.70628e-020 -3.87848e-018
LeftArm  -16.6699 29.7326 -61.7167
LeftForeArm  -21.2597 -26.393 3.97934
LeftHand  -0.446394 -3.65898 6.20435
RightShoulder  6.84616 10.6163 31.8634
RightArm  14.7834 -39.763 19.367
RightForeArm  -4.76382 34.5052 -18.6981
RightHand  -0.444174 7.5931 -4.09613
LeftUpLeg  -65.4403 3.11299 15.9928
LeftLeg  105.708 -9.61987 -12.9066
LeftFoot  -30.2248 -0.670237 -3.90305
LeftToes  7.79675e-011 9.80247e-012 -3.28897e-011
164
root  1.35852 22.7594 1.15588 -64.2728 86.6227 -53.665
RightUpLeg  -67.7519 -10.8575 -1.09492
RightLeg  92.3891 19.7139 -27.1461
RightFoot  -17.8003 0.467203 10.2716
RightToes  5.82077e-011 -3.18055e-015 -2.98177e-016
Spine  27.4289 -1.02131 5.91781
Spine1  10.3942 0.562193 -1.90272
HEad  15.0355 -10.0859 -6.9307
LeftShoulder1  -3.88251e-019 9.70628e-020 -3.87848e-018
LeftArm  -15.3863 31.8823 -62.0864
LeftForeArm  -23.9759 -27.2218 4.20164
LeftHand  -0.440216 -3.46598 6.25438
RightShoulder  7.35036 10.7128 34.2328
RightArm  16.555 -39.6336 16.5737
RightForeArm  -4.95516 34.1028 -18.4275
RightHand  -0.7562 7.39165 -6.91654
LeftUpLeg  -64.3741 2.36183 15.394
LeftLeg  106.432 -9.47602 -12.7563
LeftFoot  -30.8254 -0.713625 -4.03796
LeftToes  7.79675e-011 9.80247e-012 -3.28897e-011
